<svg width="64" height="64" viewBox="0 0 64 64" fill="none" xmlns="http://www.w3.org/2000/svg">
<path d="M64 32C64 14.3264 49.6736 0 32 0C14.3264 0 0 14.3264 0 32C0 49.6736 14.3264 64 32 64C49.6736 64 64 49.6736 64 32ZM17.6 21.5808C18.7104 20.3584 20.528 19.2 23.2 19.2C26.8864 19.2 29.2608 21.7344 30.096 24.5152C30.9056 27.2256 30.416 30.5792 28.112 32.8928C27.3129 33.661 26.4653 34.3772 25.5744 35.0368L25.4464 35.136C24.5504 35.8272 23.7504 36.4544 23.0464 37.152C22.2304 37.9712 21.5616 38.864 21.1744 40H28C28.6365 40 29.247 40.2529 29.6971 40.7029C30.1471 41.153 30.4 41.7635 30.4 42.4C30.4 43.0365 30.1471 43.647 29.6971 44.0971C29.247 44.5471 28.6365 44.8 28 44.8H18.4C17.7635 44.8 17.153 44.5471 16.7029 44.0971C16.2529 43.647 16 43.0365 16 42.4C16 38.4096 17.6768 35.7344 19.6608 33.7568C20.608 32.8096 21.6384 32.0128 22.5088 31.3376L22.5184 31.3312C23.4336 30.624 24.144 30.0736 24.7104 29.5072C25.5808 28.6304 25.8848 27.1872 25.4976 25.8912C25.1296 24.672 24.3136 24 23.2 24C22.0704 24 21.488 24.4384 21.152 24.8096C20.9554 25.0266 20.7955 25.2741 20.6784 25.5424V25.552C20.4824 26.158 20.0536 26.6612 19.4865 26.9511C18.9194 27.2409 18.2604 27.2936 17.6544 27.0976C17.0484 26.9016 16.5452 26.4728 16.2553 25.9057C15.9655 25.3386 15.9128 24.6796 16.1088 24.0736L16.2208 23.7664C16.5496 22.9638 17.0152 22.2243 17.5968 21.5808H17.6ZM36 19.2C36.6365 19.2 37.247 19.4529 37.6971 19.9029C38.1471 20.353 38.4 20.9635 38.4 21.6V30.4H43.2V21.6C43.2 20.9635 43.4529 20.353 43.9029 19.9029C44.353 19.4529 44.9635 19.2 45.6 19.2C46.2365 19.2 46.847 19.4529 47.2971 19.9029C47.7471 20.353 48 20.9635 48 21.6V42.304C48 42.9405 47.7471 43.551 47.2971 44.0011C46.847 44.4511 46.2365 44.704 45.6 44.704C44.9635 44.704 44.353 44.4511 43.9029 44.0011C43.4529 43.551 43.2 42.9405 43.2 42.304V35.2H36C35.3635 35.2 34.753 34.9471 34.3029 34.4971C33.8529 34.047 33.6 33.4365 33.6 32.8V21.6C33.6 20.9635 33.8529 20.353 34.3029 19.9029C34.753 19.4529 35.3635 19.2 36 19.2Z" fill="#5994CB"/>
</svg>
