<svg width="72" height="64" viewBox="0 0 72 64" fill="none" xmlns="http://www.w3.org/2000/svg">
<path d="M59.6111 52.3502L57.7758 63.9664H57.0279C52.6625 63.9664 48.297 63.9512 43.9316 63.9854C43.3723 63.9854 43.1673 63.7216 43.0044 63.0004C42.0923 58.9582 41.138 54.9349 40.196 50.9059C40.1647 50.7712 40.1145 50.646 40.0073 50.3082C39.4942 52.7316 39.0218 54.9425 38.5589 57.1553C38.1408 59.148 37.7227 61.1406 37.3304 63.139C37.211 63.7481 37.0155 63.9872 36.5336 63.9835C33.4116 63.9531 30.2895 63.9664 27.1675 63.9835C26.744 63.9835 26.5308 63.843 26.4222 63.2016C26.1239 61.4044 25.7421 59.6364 25.2793 57.9087C24.8571 59.6262 24.4173 61.338 24.025 63.0687C23.8744 63.7367 23.6558 63.9948 23.1278 63.9873C20.0519 63.9436 16.976 63.9607 13.8974 63.9569H13.2322C12.5318 59.4421 11.8409 54.9786 11.15 50.515L11.0142 50.4998C10.4685 52.3849 9.92013 54.2764 9.36902 56.1741C8.69031 58.535 7.99668 60.892 7.34104 63.2699C7.1958 63.7975 7.01662 64.029 6.60939 63.9835C6.20217 63.9379 5.75015 63.9835 5.32121 63.9645C3.32173 63.8734 2.07834 61.7137 2.34168 58.9259C2.76791 54.4282 3.1412 49.921 3.54842 45.4195C3.70452 43.7115 3.88777 41.9921 4.0656 40.2804C4.15383 39.4397 4.45517 39.1094 5.11624 39.1113C20.0668 39.143 35.017 39.1531 49.9666 39.1417C55.5094 39.1417 61.0513 39.1417 66.5923 39.1417C67.6456 39.1417 67.8587 39.3505 67.9877 40.7795C68.3257 44.5295 68.6311 48.287 68.961 52.0408C69.1619 54.3181 69.356 56.6068 69.599 58.8728C69.8976 61.6644 68.6067 63.8962 66.5896 63.9626C65.6394 63.9948 64.6892 63.9132 63.739 63.9948C63.1444 64.0461 62.9137 63.6855 62.7155 62.9814C61.7816 59.6736 60.8151 56.3829 59.8581 53.0865C59.8161 52.91 59.7509 52.7582 59.6111 52.3502Z" fill="#5994CB"/>
<path d="M35.9811 35.2668C28.1162 35.2668 20.2504 35.2668 12.3837 35.2668C9.48838 35.2668 6.59437 35.2289 3.69628 35.1985C1.82983 35.1795 0.188718 33.0502 0.0176834 30.4541C-0.16421 27.6928 1.07511 25.1574 2.90627 24.6109C3.37039 24.4793 3.84306 24.4157 4.31662 24.4211C21.963 24.411 39.6095 24.411 57.2559 24.4211C58.9499 24.4211 60.177 22.0451 59.6571 19.7716C59.2567 18.0199 58.392 16.7351 57.4432 15.5509C55.5116 13.1617 53.1619 12.0173 50.6873 11.3018C46.9232 10.2144 43.1048 10.2049 39.285 10.2448C36.0272 10.2808 32.7694 10.4137 29.5116 10.2941C26.9217 10.1973 24.3263 9.85195 21.9318 8.25213C21.3185 7.8607 20.7403 7.36959 20.2093 6.78896C19.445 5.92358 19.4858 4.89119 20.3206 4.16055C20.9681 3.59173 21.6628 3.13543 22.3893 2.80175C24.8028 1.69346 27.3004 1.2285 29.8116 0.828074C34.3576 0.105026 38.9185 -0.0486935 43.4849 0.012035C48.3553 0.0784568 53.0872 1.19624 57.5789 3.90625C62.7928 7.05085 67.0591 11.7763 69.9966 18.6842C71.1616 21.4017 71.834 24.476 71.9553 27.6397C72.0286 29.3989 72.0992 31.1202 71.4042 32.6726C70.6875 34.2762 69.6396 35.1909 68.2686 35.1909C57.5061 35.1998 46.7436 35.1998 35.9811 35.1909V35.2668Z" fill="#5994CB"/>
</svg>
