<svg width="44" height="44" viewBox="0 0 44 44" fill="none" xmlns="http://www.w3.org/2000/svg">
<path d="M2 38.3636V5.63636C2 4.67194 2.38312 3.74702 3.06507 3.06507C3.74702 2.38312 4.67194 2 5.63636 2H38.3636C39.3281 2 40.253 2.38312 40.9349 3.06507C41.6169 3.74702 42 4.67194 42 5.63636V38.3636C42 39.3281 41.6169 40.253 40.9349 40.9349C40.253 41.6169 39.3281 42 38.3636 42H5.63636C4.67194 42 3.74702 41.6169 3.06507 40.9349C2.38312 40.253 2 39.3281 2 38.3636Z" fill="#004068" stroke="white" stroke-width="2.5"/>
<path d="M27.4553 12.9091H34.728H27.4553ZM27.4553 28.3636H34.728H27.4553ZM27.4553 33.8182H34.728H27.4553ZM9.27344 12.9091H12.9098H9.27344ZM16.5462 12.9091H12.9098H16.5462ZM12.9098 12.9091V9.27271V12.9091ZM12.9098 12.9091V16.5454V12.9091ZM10.3389 33.6618L12.9098 31.0909L10.3389 33.6618ZM15.4825 28.52L12.9098 31.0909L15.4825 28.52ZM12.9098 31.0909L10.3389 28.52L12.9098 31.0909ZM12.9098 31.0909L15.4825 33.6618L12.9098 31.0909Z" fill="#004068"/>
<path d="M12.9098 31.0909L15.4825 33.6618M27.4553 12.9091H34.728H27.4553ZM27.4553 28.3636H34.728H27.4553ZM27.4553 33.8182H34.728H27.4553ZM9.27344 12.9091H12.9098H9.27344ZM16.5462 12.9091H12.9098H16.5462ZM12.9098 12.9091V9.27271V12.9091ZM12.9098 12.9091V16.5454V12.9091ZM10.3389 33.6618L12.9098 31.0909L10.3389 33.6618ZM15.4825 28.52L12.9098 31.0909L15.4825 28.52ZM12.9098 31.0909L10.3389 28.52L12.9098 31.0909Z" stroke="white" stroke-width="2.5" stroke-linecap="round" stroke-linejoin="round"/>
</svg>
