<svg width="57" height="64" viewBox="0 0 57 64" fill="none" xmlns="http://www.w3.org/2000/svg">
<path d="M34.2 0V16.9412C34.2 18.4388 34.8006 19.8752 35.8695 20.9342C36.9385 21.9932 38.3883 22.5882 39.9 22.5882H57V54.5882C57 56.0858 56.3995 57.5222 55.3305 58.5812C54.2616 59.6402 52.8117 60.2352 51.3 60.2352H33.2234C36.0616 56.8303 37.7266 52.6156 37.9754 48.2066C38.2242 43.7977 37.0437 39.4254 34.6063 35.7283C32.169 32.0312 28.6024 29.2028 24.4275 27.6564C20.2525 26.1099 15.6879 25.9262 11.4001 27.1322V5.64705C11.4001 4.14936 12.0006 2.71301 13.0696 1.65398C14.1385 0.594956 15.5883 0 17.1001 0H34.2ZM38 0.941175V16.9412C38 17.4404 38.2002 17.9192 38.5565 18.2722C38.9128 18.6252 39.3961 18.8235 39.9 18.8235H56.05L38 0.941175ZM5.0085 59.038C8.21538 62.2151 12.5649 64 17.1001 64C21.6353 64 25.9848 62.2151 29.1917 59.038C32.3985 55.8609 34.2001 51.5518 34.2001 47.0588C34.2001 42.5657 32.3985 38.2566 29.1917 35.0795C25.9848 31.9024 21.6353 30.1175 17.1001 30.1175C12.5649 30.1175 8.21538 31.9024 5.0085 35.0795C1.80161 38.2566 0 42.5657 0 47.0588C0 51.5518 1.80161 55.8609 5.0085 59.038ZM10.3817 40.4028C10.738 40.0499 11.2212 39.8516 11.725 39.8516C12.2288 39.8516 12.712 40.0499 13.0683 40.4028L17.0963 44.3933L21.1319 40.4028C21.3071 40.223 21.5168 40.0796 21.7486 39.9809C21.9804 39.8823 22.2297 39.8303 22.482 39.8282C22.7343 39.826 22.9845 39.8736 23.218 39.9683C23.4515 40.0629 23.6636 40.2027 23.842 40.3794C24.0204 40.5562 24.1615 40.7663 24.257 40.9977C24.3526 41.229 24.4006 41.4769 24.3984 41.7268C24.3962 41.9767 24.3438 42.2237 24.2443 42.4534C24.1447 42.6831 23.9999 42.8908 23.8185 43.0644L19.7867 47.0588L23.8147 51.0493C23.9913 51.2241 24.1315 51.4316 24.2272 51.6601C24.3229 51.8885 24.3722 52.1334 24.3724 52.3807C24.3726 52.628 24.3236 52.873 24.2282 53.1016C24.1328 53.3301 23.993 53.5378 23.8166 53.7129C23.6402 53.8879 23.4307 54.0267 23.2001 54.1216C22.9695 54.2164 22.7224 54.2653 22.4727 54.2654C22.2231 54.2656 21.9758 54.2171 21.7451 54.1226C21.5144 54.0281 21.3047 53.8895 21.1281 53.7147L17.1001 49.7242L13.0721 53.7147C12.8954 53.8898 12.6857 54.0286 12.4549 54.1233C12.2241 54.218 11.9767 54.2668 11.7269 54.2668C11.4771 54.2668 11.2297 54.218 10.9989 54.1233C10.7681 54.0286 10.5583 53.8898 10.3817 53.7147C10.205 53.5397 10.0649 53.332 9.9693 53.1033C9.87369 52.8746 9.82449 52.6295 9.82449 52.382C9.82449 52.1345 9.87369 51.8894 9.9693 51.6608C10.0649 51.4321 10.205 51.2243 10.3817 51.0493L14.4097 47.0588L10.3817 43.0682C10.2047 42.8933 10.0644 42.6856 9.96858 42.4569C9.87279 42.2282 9.82349 41.9831 9.82349 41.7355C9.82349 41.4879 9.87279 41.2427 9.96858 41.014C10.0644 40.7853 10.2047 40.5776 10.3817 40.4028Z" fill="#5994CB"/>
</svg>
