<svg width="16" height="20" viewBox="0 0 16 20" fill="none" xmlns="http://www.w3.org/2000/svg">
<path d="M6.83427 1.32491C6.40997 0.537339 5.52331 -0.0996923 4.43428 0.0129628C3.46004 0.113494 2.01363 0.449943 1.02742 1.55326C0.0150957 2.68637 -0.362418 4.45349 0.414911 7.10114C1.24501 9.9256 2.47763 12.7101 4.00999 14.9567C5.53092 17.1871 7.40435 18.9724 9.55356 19.6569C11.4542 20.2621 12.9077 20.0095 13.9679 19.3447C14.9905 18.7036 15.5519 17.7392 15.8424 17.0714C16.1677 16.3237 15.9533 15.5452 15.529 14.9713L13.964 12.8577C13.6183 12.3906 13.1206 12.0387 12.5438 11.8535C11.967 11.6683 11.3415 11.6596 10.759 11.8286L8.59618 12.4566C8.52786 12.4783 8.45418 12.4809 8.38427 12.4641C8.31435 12.4473 8.25129 12.4119 8.20289 12.3621C7.24007 11.3148 6.16138 9.85437 5.86818 8.37621C5.8589 8.33674 5.86527 8.29548 5.88613 8.26002C6.20435 7.76343 6.75158 7.20066 7.29664 6.70811C8.21975 5.87355 8.56952 4.54695 7.96028 3.41636L6.83427 1.32491V1.32491Z" fill="#004068"/>
</svg>
