<svg width="64" height="64" viewBox="0 0 64 64" fill="none" xmlns="http://www.w3.org/2000/svg">
<path d="M47.2 0C49.9583 0 52.6035 1.09571 54.5539 3.04609C56.5043 4.99647 57.6 7.64175 57.6 10.4V12.8H0V10.4C0 7.64175 1.09571 4.99647 3.04609 3.04609C4.99647 1.09571 7.64175 0 10.4 0H47.2ZM57.6 17.6V28.8704C53.6063 26.3162 48.8599 25.2028 44.147 25.7148C39.4341 26.2267 35.0374 28.3332 31.6853 31.6853C28.3332 35.0374 26.2267 39.4341 25.7148 44.147C25.2028 48.8599 26.3162 53.6063 28.8704 57.6H10.4C7.64175 57.6 4.99647 56.5043 3.04609 54.5539C1.09571 52.6035 0 49.9583 0 47.2V17.6H57.6ZM64 46.4C64 41.7322 62.1457 37.2556 58.8451 33.9549C55.5444 30.6543 51.0678 28.8 46.4 28.8C41.7322 28.8 37.2556 30.6543 33.9549 33.9549C30.6543 37.2556 28.8 41.7322 28.8 46.4C28.8 51.0678 30.6543 55.5444 33.9549 58.8451C37.2556 62.1457 41.7322 64 46.4 64C51.0678 64 55.5444 62.1457 58.8451 58.8451C62.1457 55.5444 64 51.0678 64 46.4ZM46.4 46.4H52.8C53.2243 46.4 53.6313 46.5686 53.9314 46.8686C54.2314 47.1687 54.4 47.5757 54.4 48C54.4 48.4243 54.2314 48.8313 53.9314 49.1314C53.6313 49.4314 53.2243 49.6 52.8 49.6H44.8C44.3757 49.6 43.9687 49.4314 43.6686 49.1314C43.3686 48.8313 43.2 48.4243 43.2 48V38.4C43.2 37.9757 43.3686 37.5687 43.6686 37.2686C43.9687 36.9686 44.3757 36.8 44.8 36.8C45.2243 36.8 45.6313 36.9686 45.9314 37.2686C46.2314 37.5687 46.4 37.9757 46.4 38.4V46.4Z" fill="#5994CB"/>
</svg>
