<svg width="60" height="80" viewBox="0 0 60 80" fill="none" xmlns="http://www.w3.org/2000/svg">
<path d="M21.0248 0C21.5481 0.103125 22.0746 0.189062 22.5963 0.312499C25.0635 0.906247 27.108 3.28124 27.3107 5.82342C27.3987 6.90466 27.4679 7.99216 27.4679 9.07653C27.4763 30.3765 27.4763 51.6785 27.4679 72.9825C27.4679 76.2419 25.8257 78.6247 22.9389 79.581C19.513 80.7138 15.9882 79.345 14.5157 75.9372C14.1835 75.1848 14.004 74.3745 13.9877 73.5529C13.951 51.1842 13.9437 28.8155 13.9657 6.44685C13.9657 3.21093 16.6372 0.353124 19.8179 0.140624C19.9638 0.111956 20.1054 0.0646913 20.2391 0L21.0248 0ZM18.2134 33.3514C18.2861 33.3836 18.362 33.4082 18.4397 33.4249C19.3826 33.4311 20.3255 33.4353 21.2684 33.4374C23.349 33.4374 23.3538 33.4374 23.1997 31.328C23.0693 29.553 22.2191 28.9077 20.8425 28.7796C20.2261 28.7326 19.6146 28.9185 19.1301 29.3003C18.6457 29.6821 18.3239 30.2316 18.2291 30.8389C18.1286 31.6546 18.2134 32.4999 18.2134 33.3514ZM18.2134 46.5873C18.2134 47.3905 18.1663 48.1186 18.2244 48.8373C18.2901 49.4732 18.5841 50.0641 19.0526 50.5018C19.5211 50.9395 20.1326 51.1945 20.7749 51.2201C21.9457 51.2342 22.975 50.2217 23.0677 48.8764C23.1243 48.1186 23.0772 47.3545 23.0772 46.5873H18.2134Z" fill="#8171DA"/>
<path d="M39.5687 0C40.5634 0.312499 41.6289 0.489061 42.5388 0.962496C44.3334 1.89999 45.3753 3.46249 45.6818 5.45779C45.7986 6.27749 45.8512 7.10498 45.8389 7.93278C45.8473 29.6494 45.8499 51.368 45.8468 73.0888C45.8468 76.2435 43.9971 78.9763 40.8259 79.7575C37.0543 80.695 32.981 78.381 32.4829 74.2888C32.3886 73.545 32.3398 72.7963 32.3367 72.0466C32.3283 50.38 32.3283 28.7134 32.3367 7.04685C32.3367 4.12342 33.6269 1.93749 36.2654 0.65156C37.026 0.282812 37.9312 0.209374 38.7704 0.00156249L39.5687 0ZM41.6729 33.3999C41.5959 32.378 41.577 31.4483 41.4419 30.5358C41.2848 29.4983 40.4189 28.8608 39.2167 28.7811C38.2565 28.7171 36.9616 29.4265 36.8076 30.2718C36.6222 31.2936 36.63 32.3499 36.5546 33.3968L41.6729 33.3999ZM36.564 46.6061C36.6269 47.5436 36.6159 48.442 36.7652 49.317C36.9427 50.3561 38.1119 51.2389 39.1224 51.2295C40.0779 51.2217 41.2596 50.3967 41.423 49.4779C41.5865 48.5592 41.5928 47.603 41.6713 46.6061H36.564Z" fill="#8171DA"/>
<path d="M3.10996 68.7497V67.7997C3.10996 56.8373 3.1042 45.8753 3.09268 34.9139C3.09268 34.517 2.83653 34.1217 2.70766 33.7233C2.47194 33.0045 2.0665 32.292 2.04136 31.5655C1.9565 29.1467 2.00678 26.7217 2.00993 24.3014C2.00993 22.4264 3.37397 21.0671 5.24247 21.0702C7.11096 21.0733 8.44829 22.4061 8.45143 24.2952C8.45143 26.8473 8.45143 29.3993 8.45143 31.9514C8.46642 32.3328 8.39626 32.7127 8.24601 33.0639C8.09575 33.4151 7.86912 33.7289 7.5824 33.9827C7.41111 34.1389 7.3624 34.4905 7.3624 34.753C7.35192 41.1842 7.35192 47.6154 7.3624 54.0466C7.3624 58.4997 7.3624 62.9518 7.3624 67.4028V68.7091C8.50644 68.7341 9.69605 68.5653 10.3718 69.6638C10.586 70.068 10.6896 70.5212 10.6719 70.9778C10.6719 72.3106 10.0433 72.6872 7.37183 73.0403C7.37183 74.6028 7.37183 76.1872 7.37183 77.7684C7.37183 78.8622 6.90038 79.5028 5.87735 79.8403C5.56347 79.94 5.23045 79.9651 4.90503 79.9137C4.57961 79.8622 4.27086 79.7356 4.00358 79.544C3.73629 79.3524 3.51792 79.1011 3.36601 78.8104C3.21409 78.5197 3.13285 78.1976 3.12882 77.87C3.11625 76.2622 3.12882 74.6528 3.12882 72.9731C2.1105 72.9903 1.07018 73.0606 0.446301 72.1919C0.124147 71.781 0.0110004 71.1528 0 70.6153C0.0193582 70.1839 0.19069 69.7729 0.484017 69.4544C0.806074 69.1281 1.21044 68.8939 1.65477 68.7763C2.0665 68.6638 2.5348 68.7497 3.10996 68.7497Z" fill="#8171DA"/>
<path d="M56.7599 68.6888C59.246 68.931 59.961 69.3732 59.9972 70.6669C60.0412 72.2622 59.4864 72.67 56.697 73.0513C56.697 74.6138 56.7112 76.2013 56.697 77.781C56.686 78.6419 56.3073 79.3106 55.5106 79.7185C54.7138 80.1263 53.9014 80.1138 53.2728 79.531C52.8783 79.1638 52.5138 78.5653 52.487 78.0497C52.388 76.395 52.4509 74.731 52.4509 73.0138C51.4373 72.9482 50.3577 73.131 49.7621 72.2044C49.4699 71.6979 49.3201 71.1226 49.3284 70.5388C49.3284 69.3404 50.1361 68.881 52.3802 68.706C52.3959 68.5216 52.4242 68.3263 52.4242 68.1294C52.4242 57.117 52.4189 46.104 52.4085 35.0905C52.4085 34.6358 52.1555 34.1811 52.014 33.7296C51.7956 33.0311 51.4027 32.3389 51.3854 31.6358C51.3084 29.1358 51.3509 26.6358 51.3619 24.1358C51.3619 22.603 52.5578 21.2593 54.0224 21.0999C55.8076 20.9046 57.2754 21.8312 57.6368 23.4108C57.7368 23.8361 57.7895 24.271 57.7939 24.7077C57.8097 27.0254 57.8097 29.3426 57.7939 31.6593C57.7939 32.5061 57.5897 33.2858 56.9485 33.9124C56.7971 34.0795 56.7112 34.2953 56.7065 34.5202C56.6981 45.8451 56.6981 57.1706 56.7065 68.4966C56.7184 68.5622 56.7362 68.6265 56.7599 68.6888V68.6888Z" fill="#8171DA"/>
</svg>
