<svg width="48" height="64" viewBox="0 0 48 64" fill="none" xmlns="http://www.w3.org/2000/svg">
<path d="M16.8198 0C17.2384 0.0824997 17.6596 0.151249 18.077 0.249999C20.0507 0.724997 21.6863 2.62499 21.8485 4.65873C21.9189 5.52373 21.9742 6.39373 21.9742 7.26122C21.9809 24.3012 21.9809 41.3428 21.9742 58.386C21.9742 60.9935 20.6605 62.8998 18.351 63.6648C15.6104 64.571 12.7905 63.476 11.6125 60.7498C11.3467 60.1478 11.2032 59.4996 11.1901 58.8423C11.1608 40.9474 11.1549 23.0524 11.1725 5.15748C11.1725 2.56874 13.3097 0.282499 15.8543 0.1125C15.971 0.0895651 16.0842 0.051753 16.1912 0L16.8198 0ZM14.5707 26.6812C14.6288 26.7069 14.6895 26.7265 14.7517 26.7399C15.506 26.7449 16.2603 26.7482 17.0146 26.7499C18.6792 26.7499 18.6829 26.7499 18.5597 25.0624C18.4554 23.6424 17.7752 23.1262 16.6739 23.0237C16.1808 22.9861 15.6916 23.1348 15.304 23.4403C14.9165 23.7457 14.659 24.1853 14.5832 24.6712C14.5028 25.3237 14.5707 25.9999 14.5707 26.6812ZM14.5707 37.2699C14.5707 37.9124 14.533 38.4949 14.5795 39.0699C14.632 39.5785 14.8672 40.0513 15.242 40.4014C15.6168 40.7516 16.106 40.9556 16.6199 40.9761C17.5565 40.9874 18.3799 40.1774 18.4541 39.1011C18.4994 38.4949 18.4617 37.8836 18.4617 37.2699H14.5707Z" fill="#5994CB"/>
<path d="M31.6549 0C32.4507 0.249999 33.303 0.391249 34.0309 0.769997C35.4666 1.51999 36.3002 2.76999 36.5453 4.36623C36.6388 5.02199 36.6808 5.68399 36.671 6.34623C36.6777 23.7195 36.6798 41.0944 36.6773 58.471C36.6773 60.9948 35.1976 63.181 32.6606 63.806C29.6434 64.556 26.3847 62.7048 25.9862 59.431C25.9108 58.836 25.8718 58.237 25.8693 57.6373C25.8626 40.304 25.8626 22.9708 25.8693 5.63748C25.8693 3.29874 26.9014 1.54999 29.0123 0.521248C29.6207 0.226249 30.3449 0.167499 31.0162 0.00125L31.6549 0ZM33.3382 26.7199C33.2766 25.9024 33.2615 25.1587 33.1534 24.4287C33.0277 23.5987 32.335 23.0887 31.3732 23.0249C30.6051 22.9737 29.5692 23.5412 29.446 24.2174C29.2976 25.0349 29.3039 25.8799 29.2436 26.7174L33.3382 26.7199ZM29.2511 37.2849C29.3014 38.0349 29.2926 38.7536 29.412 39.4536C29.5541 40.2849 30.4894 40.9911 31.2978 40.9836C32.0622 40.9774 33.0076 40.3174 33.1383 39.5824C33.2691 38.8474 33.2741 38.0824 33.337 37.2849H29.2511Z" fill="#5994CB"/>
<path d="M2.48797 54.9999V54.2399C2.48797 45.4699 2.48336 36.7004 2.47414 27.9312C2.47414 27.6137 2.26922 27.2975 2.16613 26.9787C1.97755 26.4037 1.6532 25.8337 1.63308 25.2525C1.5652 23.3175 1.60543 21.3775 1.60794 19.4413C1.60794 17.9413 2.69918 16.8538 4.19397 16.8563C5.68877 16.8588 6.75863 17.925 6.76115 19.4363C6.76115 21.4779 6.76115 23.5196 6.76115 25.5612C6.77314 25.8663 6.71701 26.1703 6.59681 26.4512C6.4766 26.7322 6.2953 26.9832 6.06592 27.1862C5.92889 27.3112 5.88992 27.5925 5.88992 27.8025C5.88154 32.9475 5.88154 38.0924 5.88992 43.2374C5.88992 46.7999 5.88992 50.3616 5.88992 53.9224V54.9674C6.80515 54.9874 7.75684 54.8524 8.29743 55.7311C8.46883 56.0545 8.55164 56.4171 8.53755 56.7824C8.53755 57.8486 8.03468 58.1499 5.89746 58.4324C5.89746 59.6824 5.89746 60.9499 5.89746 62.2149C5.89746 63.0899 5.52031 63.6023 4.70188 63.8723C4.45077 63.9521 4.18436 63.9722 3.92402 63.931C3.66369 63.8899 3.41669 63.7886 3.20286 63.6353C2.98904 63.482 2.81434 63.281 2.6928 63.0484C2.57127 62.8159 2.50628 62.5582 2.50306 62.2961C2.493 61.0099 2.50306 59.7224 2.50306 58.3786C1.6884 58.3924 0.856144 58.4486 0.357041 57.7536C0.0993177 57.4249 0.0088003 56.9224 0 56.4924C0.0154866 56.1472 0.152552 55.8185 0.387213 55.5636C0.644859 55.3026 0.96835 55.1152 1.32382 55.0211C1.6532 54.9311 2.02784 54.9999 2.48797 54.9999Z" fill="#5994CB"/>
<path d="M45.4079 54.9511C47.3968 55.1449 47.9688 55.4986 47.9977 56.5336C48.0329 57.8099 47.5891 58.1361 45.3576 58.4411C45.3576 59.6911 45.3689 60.9611 45.3576 62.2249C45.3488 62.9136 45.0458 63.4486 44.4084 63.7749C43.771 64.1011 43.1211 64.0911 42.6182 63.6249C42.3026 63.3311 42.011 62.8524 41.9896 62.4399C41.9104 61.1161 41.9607 59.7849 41.9607 58.4111C41.1498 58.3586 40.2861 58.5049 39.8096 57.7636C39.5759 57.3585 39.456 56.8982 39.4627 56.4311C39.4627 55.4724 40.1089 55.1049 41.9041 54.9649C41.9167 54.8174 41.9393 54.6611 41.9393 54.5036C41.9393 45.6937 41.9351 36.8833 41.9268 28.0725C41.9268 27.7087 41.7243 27.345 41.6112 26.9837C41.4364 26.425 41.1222 25.8712 41.1083 25.3088C41.0467 23.3088 41.0807 21.3088 41.0895 19.3088C41.0895 18.0825 42.0462 17.0075 43.2179 16.88C44.646 16.7238 45.8203 17.465 46.1094 18.7288C46.1895 19.069 46.2316 19.4169 46.2351 19.7663C46.2477 21.6204 46.2477 23.4742 46.2351 25.3275C46.2351 26.005 46.0717 26.6287 45.5588 27.13C45.4376 27.2637 45.3689 27.4363 45.3652 27.6162C45.3585 36.6762 45.3585 45.7366 45.3652 54.7974C45.3747 54.8498 45.389 54.9013 45.4079 54.9511Z" fill="#5994CB"/>
</svg>
