<svg width="64" height="64" viewBox="0 0 64 64" fill="none" xmlns="http://www.w3.org/2000/svg">
<path d="M10.8539 63.9938C10.1194 63.8688 9.37113 63.7963 8.65165 63.6125C4.77895 62.6251 2.14501 60.2554 0.697279 56.5232C0.226526 55.2991 -0.00989198 53.9975 0.000317059 52.6861C0.009076 50.0476 0.684766 47.5329 2.51288 45.5618C4.42358 43.4958 6.50696 41.5884 8.53528 39.6336C9.69772 38.5087 10.8764 37.4088 12.0877 36.3415C12.9273 35.6028 13.5266 34.7854 13.8682 33.6792C14.5477 31.4744 16.2682 30.392 18.4241 29.8571C18.8484 29.7434 19.2362 29.5226 19.5503 29.2159C22.8236 25.9804 26.0807 22.7269 29.3215 19.4556C29.543 19.2319 29.6731 18.8644 29.7332 18.5419C30.1649 16.1947 31.9855 14.2099 34.3166 13.7499C34.7233 13.6699 35.1212 13.6037 35.3076 13.145C35.3652 13.0025 35.5341 12.9062 35.6492 12.785C37.5762 10.7785 39.5019 8.77081 41.4264 6.76184C42.51 5.62195 43.5298 4.41832 44.6509 3.31718C46.6342 1.37487 49.0066 0.227478 51.8257 0.116239C51.9378 0.0941388 52.0459 0.0549335 52.1461 0L53.2722 0C53.9654 0.124988 54.6699 0.20623 55.3506 0.374963C59.2233 1.37487 61.851 3.74963 63.3037 7.47177C63.7774 8.69552 64.0135 9.99818 63.9994 11.3101C63.9781 14.0136 63.2687 16.5659 61.3592 18.5794C59.5236 20.5167 57.5628 22.3378 55.6384 24.1901C54.4146 25.3675 53.1583 26.5112 51.9133 27.6648C51.5655 27.9885 51.2214 28.3185 50.8447 28.606C50.3705 28.9697 50.2404 29.4884 50.0539 30.0146C49.2656 32.2394 47.6515 33.5542 45.3829 34.1229C45.1493 34.1777 44.9338 34.2918 44.7573 34.4541C41.3588 37.8288 37.9816 41.2335 34.5681 44.5969C33.975 45.1806 33.93 45.9443 33.6472 46.6242C32.8639 48.5078 31.4449 49.6239 29.5567 50.2488C29.2656 50.3287 28.997 50.4751 28.7722 50.6763C27.6235 51.8687 26.5086 53.0961 25.37 54.3009C23.717 56.0508 22.0003 57.7431 20.4099 59.5504C19.2074 60.9153 17.8836 62.0852 16.2444 62.8626C14.9819 63.4626 13.6605 63.8888 12.2403 63.8838C12.1082 63.9042 11.9797 63.9433 11.8587 64L10.8539 63.9938ZM23.2528 43.2008C24.2538 44.1932 25.2211 45.1631 26.1971 46.128C26.7276 46.6517 27.3933 46.9967 28.114 46.9654C29.1663 46.9192 30.0047 46.4292 30.4914 45.4131C30.9782 44.3969 30.7505 43.4445 30.076 42.6796C29.095 41.5659 27.9839 40.5648 26.9366 39.5236L23.2528 43.2008ZM39.5407 26.9811C40.4541 27.8873 41.3713 28.8234 42.3223 29.7246C42.6482 30.0344 43.0179 30.2946 43.4196 30.497C44.3493 30.9632 45.6995 30.652 46.3251 29.8721C47.1422 28.8584 47.2273 27.4973 46.4415 26.6224C45.4067 25.4663 44.3143 24.3639 43.2632 23.2577L39.5407 26.9811ZM21.9552 34.7079C21.1494 33.6042 20.0783 32.968 18.7019 33.2905C17.7509 33.513 17.089 34.2254 16.8738 35.1941C16.5635 36.5977 17.3218 37.5588 18.3128 38.345L21.9552 34.7079ZM38.1843 18.5044C36.4851 16.7096 34.8672 16.4709 33.6697 17.907C32.6774 19.0981 32.765 20.8055 34.5994 22.0841L38.1843 18.5044Z" fill="#5994CB"/>
</svg>
