<svg width="80" height="80" viewBox="0 0 80 80" fill="none" xmlns="http://www.w3.org/2000/svg">
<path d="M13.5674 79.9922C12.6492 79.836 11.7139 79.7453 10.8146 79.5157C5.97368 78.2814 2.68126 75.3192 0.871598 70.654C0.283157 69.1238 -0.012365 67.4968 0.000396324 65.8576C0.011345 62.5595 0.855957 59.4161 3.1411 56.9523C5.52948 54.3697 8.1337 51.9855 10.6691 49.542C12.1221 48.1359 13.5955 46.7611 15.1096 45.4268C16.1591 44.5035 16.9083 43.4817 17.3353 42.099C18.1846 39.343 20.3352 37.99 23.0302 37.3214C23.5604 37.1792 24.0452 36.9032 24.4378 36.5199C28.5295 32.4755 32.6009 28.4087 36.6519 24.3195C36.9287 24.0398 37.0914 23.5805 37.1665 23.1774C37.7061 20.2433 39.9818 17.7623 42.8958 17.1874C43.4041 17.0874 43.9015 17.0046 44.1345 16.4312C44.2065 16.2531 44.4176 16.1328 44.5615 15.9813C46.9702 13.4732 49.3774 10.9635 51.783 8.4523C53.1375 7.02744 54.4122 5.5229 55.8136 4.14647C58.2927 1.71858 61.2582 0.284347 64.7822 0.145298C64.9223 0.117673 65.0574 0.0686669 65.1826 0L66.5903 0C67.4568 0.156235 68.3373 0.257787 69.1882 0.468704C74.0291 1.71858 77.3137 4.68704 79.1296 9.33971C79.7218 10.8694 80.0169 12.4977 79.9993 14.1377C79.9727 17.517 79.0858 20.7074 76.699 23.2243C74.4045 25.6459 71.9535 27.9223 69.548 30.2377C68.0183 31.7094 66.4479 33.139 64.8916 34.581C64.4568 34.9856 64.0267 35.3981 63.5559 35.7574C62.9631 36.2121 62.8004 36.8605 62.5674 37.5182C61.582 40.2992 59.5643 41.9428 56.7286 42.6536C56.4366 42.7221 56.1672 42.8647 55.9466 43.0677C51.6985 47.286 47.477 51.5418 43.2101 55.7461C42.4688 56.4757 42.4124 57.4303 42.059 58.2802C41.0798 60.6347 39.3061 62.0299 36.9459 62.8111C36.582 62.9109 36.2463 63.0938 35.9652 63.3454C34.5294 64.8359 33.1358 66.3701 31.7125 67.8762C29.6463 70.0635 27.5003 72.1789 25.5124 74.438C24.0093 76.1441 22.3545 77.6065 20.3055 78.5783C18.7273 79.3282 17.0756 79.8609 15.3004 79.8547C15.1353 79.8802 14.9746 79.9291 14.8233 80L13.5674 79.9922ZM29.066 54.001C30.3173 55.2415 31.5263 56.4539 32.7463 57.66C33.4095 58.3146 34.2416 58.7458 35.1425 58.7068C36.4579 58.649 37.5059 58.0365 38.1143 56.7663C38.7227 55.4961 38.4381 54.3056 37.595 53.3495C36.3688 51.9574 34.9799 50.706 33.6707 49.4045L29.066 54.001ZM49.4259 33.7264C50.5676 34.8591 51.7141 36.0293 52.9028 37.1557C53.3102 37.543 53.7724 37.8683 54.2746 38.1213C55.4367 38.704 57.1243 38.315 57.9064 37.3401C58.9277 36.073 59.0341 34.3716 58.0518 33.278C56.7583 31.8328 55.3929 30.4548 54.079 29.0722L49.4259 33.7264ZM27.444 43.3848C26.4368 42.0053 25.0979 41.21 23.3774 41.6131C22.1887 41.8912 21.3613 42.7818 21.0922 43.9926C20.7043 45.7471 21.6522 46.9485 22.891 47.9313L27.444 43.3848ZM47.7304 23.1306C45.6063 20.887 43.584 20.5886 42.0871 22.3838C40.8468 23.8727 40.9563 26.0068 43.2492 27.6051L47.7304 23.1306Z" fill="#8171DA"/>
</svg>
