<svg width="64" height="64" viewBox="0 0 64 64" fill="none" xmlns="http://www.w3.org/2000/svg">
<path d="M11.2941 15.0588C11.2941 11.065 12.8807 7.2347 15.7047 4.41063C18.5288 1.58655 22.3591 0 26.3529 0C30.3468 0 34.1771 1.58655 37.0011 4.41063C39.8252 7.2347 41.4118 11.065 41.4118 15.0588C41.4118 19.0527 39.8252 22.8829 37.0011 25.707C34.1771 28.5311 30.3468 30.1176 26.3529 30.1176C22.3591 30.1176 18.5288 28.5311 15.7047 25.707C12.8807 22.8829 11.2941 19.0527 11.2941 15.0588ZM0 41.4118C0 37.2216 3.39953 33.8824 7.56329 33.8824H31.0852C28.0193 37.5882 26.3453 42.2492 26.3529 47.0588C26.3529 51.9642 28.0584 56.4706 30.9082 60.0207C29.4212 60.1638 27.8965 60.2353 26.3529 60.2353C19.3694 60.2353 12.864 58.7821 8.03765 55.7064C3.136 52.5816 0 47.7741 0 41.4118ZM64 47.0588C64 51.5519 62.2151 55.861 59.038 59.038C55.861 62.2151 51.5519 64 47.0588 64C42.5657 64 38.2567 62.2151 35.0796 59.038C31.9025 55.861 30.1176 51.5519 30.1176 47.0588C30.1176 42.5657 31.9025 38.2567 35.0796 35.0796C38.2567 31.9025 42.5657 30.1176 47.0588 30.1176C51.5519 30.1176 55.861 31.9025 59.038 35.0796C62.2151 38.2567 64 42.5657 64 47.0588ZM55.9209 40.0791C55.7461 39.9038 55.5384 39.7647 55.3097 39.6698C55.081 39.5749 54.8358 39.526 54.5882 39.526C54.3406 39.526 54.0955 39.5749 53.8668 39.6698C53.6381 39.7647 53.4304 39.9038 53.2555 40.0791L43.2941 50.0442L40.8621 47.6085C40.5087 47.255 40.0293 47.0564 39.5294 47.0564C39.0295 47.0564 38.5502 47.255 38.1967 47.6085C37.8433 47.9619 37.6447 48.4413 37.6447 48.9412C37.6447 49.441 37.8433 49.9204 38.1967 50.2739L41.9614 54.0386C42.1363 54.2139 42.344 54.353 42.5727 54.4479C42.8014 54.5428 43.0465 54.5916 43.2941 54.5916C43.5417 54.5916 43.7869 54.5428 44.0156 54.4479C44.2442 54.353 44.452 54.2139 44.6268 54.0386L55.9209 42.7445C56.0962 42.5696 56.2353 42.3619 56.3302 42.1332C56.4251 41.9045 56.474 41.6594 56.474 41.4118C56.474 41.1642 56.4251 40.919 56.3302 40.6903C56.2353 40.4616 56.0962 40.2539 55.9209 40.0791Z" fill="#5994CB"/>
</svg>
