<svg width="40" height="40" viewBox="0 0 40 40" fill="none" xmlns="http://www.w3.org/2000/svg">
<rect width="40" height="40" rx="20" fill="#419FD9"/>
<path d="M29.5356 10.1913C29.5356 10.1913 31.8483 9.25342 31.6556 11.5311C31.5914 12.4689 31.0132 15.7514 30.5635 19.3019L29.0217 29.8194C29.0217 29.8194 28.8933 31.3601 27.7369 31.6281C26.5805 31.896 24.8461 30.6902 24.5248 30.4222C24.2678 30.2213 19.7068 27.2067 18.1007 25.733C17.651 25.331 17.1371 24.5271 18.1649 23.5893L24.9103 16.8903C25.6812 16.0864 26.4521 14.2107 23.24 16.4884L14.2462 22.8524C14.2462 22.8524 13.2184 23.5223 11.2912 22.9194L7.11546 21.5796C7.11546 21.5796 5.57366 20.5747 8.20756 19.5699C14.6317 16.4213 22.5334 13.2058 29.5356 10.1913Z" fill="white"/>
</svg>
