<svg width="40" height="40" viewBox="0 0 40 40" fill="none" xmlns="http://www.w3.org/2000/svg">
<rect width="40" height="40" rx="20" fill="#0077FF"/>
<path d="M21.0718 28C12.872 28 8.19488 22.3694 8 13H12.1074C12.2423 19.8769 15.2705 22.7898 17.669 23.3904V13H21.5365V18.9309C23.9051 18.6757 26.3935 15.973 27.233 13H31.1006C30.7842 14.5419 30.1537 16.0018 29.2483 17.2884C28.3429 18.575 27.1823 19.6607 25.8389 20.4775C27.3384 21.2238 28.6629 22.2802 29.7249 23.5769C30.7869 24.8736 31.5624 26.3811 32 28H27.7427C27.3498 26.5939 26.5513 25.3351 25.4473 24.3816C24.3433 23.428 22.9829 22.8221 21.5365 22.6396V28H21.0718Z" fill="white"/>
</svg>
