<svg width="40" height="40" viewBox="0 0 40 40" fill="none" xmlns="http://www.w3.org/2000/svg">
<rect width="40" height="40" rx="20" fill="#0DC143"/>
<path d="M28.2977 11.7387C26.136 9.53145 23.1478 8.33325 20.096 8.33325C13.611 8.33325 8.39756 13.5675 8.46114 19.9369C8.46114 21.9549 9.03335 23.9098 9.98703 25.6756L8.33398 31.6666L14.5011 30.09C16.2177 31.036 18.1251 31.4774 20.0324 31.4774C26.4539 31.4774 31.6673 26.2432 31.6673 19.8738C31.6673 16.7837 30.4593 13.8828 28.2977 11.7387ZM20.096 29.5224C18.3794 29.5224 16.6628 29.081 15.2005 28.1981L14.819 28.0089L11.1314 28.9549L12.0851 25.3603L11.8308 24.9819C9.03335 20.5044 10.3685 14.5765 14.9462 11.8017C19.5238 9.02695 25.4366 10.3513 28.2341 14.8918C31.0315 19.4324 29.6964 25.2972 25.1187 28.072C23.6564 29.0179 21.8762 29.5224 20.096 29.5224ZM25.6909 22.5224L24.9916 22.2071C24.9916 22.2071 23.9743 21.7657 23.3385 21.4504C23.2749 21.4504 23.2114 21.3873 23.1478 21.3873C22.9571 21.3873 22.8299 21.4504 22.7027 21.5134C22.7027 21.5134 22.6392 21.5765 21.7491 22.5855C21.6855 22.7116 21.5583 22.7747 21.4312 22.7747H21.3676C21.304 22.7747 21.1769 22.7116 21.1133 22.6486L20.7954 22.5224C20.096 22.2071 19.4602 21.8287 18.9516 21.3242C18.8244 21.1981 18.6337 21.072 18.5066 20.9459C18.0615 20.5044 17.6165 19.9999 17.2986 19.4324L17.235 19.3062C17.1714 19.2432 17.1714 19.1801 17.1078 19.054C17.1078 18.9278 17.1078 18.8017 17.1714 18.7387C17.1714 18.7387 17.4257 18.4233 17.6165 18.2342C17.7436 18.108 17.8072 17.9188 17.9343 17.7927C18.0615 17.6035 18.1251 17.3513 18.0615 17.1621C17.9979 16.8468 17.235 15.1441 17.0442 14.7657C16.9171 14.5765 16.7899 14.5134 16.5992 14.4504H16.4085C16.2813 14.4504 16.0906 14.4504 15.8998 14.4504C15.7727 14.4504 15.6455 14.5134 15.5184 14.5134L15.4548 14.5765C15.3276 14.6396 15.2005 14.7657 15.0733 14.8287C14.9462 14.9549 14.8826 15.081 14.7554 15.2071C14.3104 15.7747 14.0561 16.4684 14.0561 17.1621C14.0561 17.6666 14.1832 18.1711 14.3739 18.6125L14.4375 18.8017C15.0097 19.9999 15.7727 21.072 16.7899 22.0179L17.0442 22.2702C17.235 22.4594 17.4257 22.5855 17.5529 22.7747C18.888 23.9098 20.4139 24.7296 22.1305 25.1711C22.3213 25.2342 22.5756 25.2342 22.7663 25.2972C22.9571 25.2972 23.2114 25.2972 23.4021 25.2972C23.72 25.2972 24.1015 25.1711 24.3558 25.045C24.5465 24.9188 24.6737 24.9188 24.8008 24.7927L24.928 24.6666C25.0551 24.5405 25.1823 24.4774 25.3095 24.3513C25.4366 24.2251 25.5638 24.099 25.6274 23.9729C25.7545 23.7206 25.8181 23.4053 25.8817 23.09C25.8817 22.9639 25.8817 22.7747 25.8817 22.6486C25.8817 22.6486 25.8181 22.5855 25.6909 22.5224Z" fill="white"/>
</svg>
