<svg width="213" height="31" viewBox="0 0 213 31" fill="none" xmlns="http://www.w3.org/2000/svg">
<path d="M27.2962 13.8217C27.2962 12.5347 27.1843 11.5834 26.9047 10.8001C26.625 10.0167 26.1775 9.51305 25.5622 9.12136C24.947 8.72966 24.1079 8.50583 23.0452 8.39392C22.0383 8.28201 20.7518 8.22605 19.2416 8.22605H11.0751C9.73267 8.22605 8.61397 8.282 7.66308 8.33796C6.76812 8.39392 5.98503 8.56179 5.36975 8.84157C4.75446 9.0654 4.30698 9.45709 3.97138 9.90474C3.63577 10.3524 3.41203 10.9679 3.24422 11.6953C3.07642 12.4228 3.02048 13.374 2.96455 14.4372C2.96455 15.5004 2.90861 16.8434 2.90861 18.3542C2.90861 19.865 2.90862 21.152 2.96455 22.2711C2.96455 23.3343 3.07642 24.2856 3.24422 25.013C3.41203 25.7404 3.63577 26.3559 3.97138 26.8036C4.30698 27.2513 4.75446 27.587 5.36975 27.8668C5.98503 28.1466 6.71218 28.2585 7.66308 28.3704C8.55803 28.4263 9.73267 28.4823 11.0751 28.4823H19.1857C20.3603 28.4823 21.3671 28.4263 22.2061 28.3704C23.0452 28.3144 23.7723 28.2025 24.3876 28.0346C25.0029 27.8668 25.4504 27.6429 25.8419 27.3632C26.2335 27.0834 26.5131 26.6917 26.6809 26.244C26.9047 25.7964 27.0165 25.2368 27.0725 24.6213C27.1284 24.0058 27.1843 23.2783 27.1843 22.439V20.9282H15.1584V18.4101H30.3167V22.439C30.3167 23.4462 30.2608 24.3415 30.1489 25.1809C30.037 26.0202 29.8133 26.7476 29.4777 27.3632C29.1421 27.9787 28.7505 28.5383 28.1912 28.9859C27.6318 29.4336 26.9606 29.8253 26.1775 30.105C25.3944 30.3848 24.3876 30.6086 23.2689 30.7765C22.1502 30.9444 20.8078 31.0003 19.2975 31.0003H11.0751C9.22926 31.0003 7.66308 30.8884 6.37658 30.6646C5.09007 30.4408 4.08325 30.105 3.24422 29.6574C2.4052 29.2097 1.78992 28.6502 1.34244 27.9227C0.894959 27.2513 0.559349 26.4119 0.391545 25.4606C0.167805 24.5094 0.055934 23.4462 0.055934 22.2711C0.055934 21.096 0 19.809 0 18.3542C0 16.8993 -8.54332e-07 15.6123 0.055934 14.4372C0.111869 13.2621 0.22374 12.199 0.391545 11.2477C0.615284 10.2964 0.894959 9.51305 1.34244 8.78561C1.78992 8.11414 2.4052 7.49862 3.24422 7.05097C4.08325 6.60332 5.09007 6.26758 6.37658 6.04375C7.66308 5.81992 9.17332 5.70801 11.0751 5.70801H19.1857C20.6959 5.70801 22.0383 5.76397 23.157 5.93184C24.2757 6.09971 25.2826 6.26758 26.0657 6.60331C26.9047 6.8831 27.5759 7.27479 28.0793 7.72244C28.6387 8.1701 29.0302 8.67371 29.3658 9.28923C29.7014 9.90475 29.9252 10.5762 30.037 11.3037C30.1489 12.0311 30.2048 12.9264 30.2048 13.8217H27.2962Z" fill="#004068"/>
<path d="M54.5365 5.70801C56.3823 5.70801 57.9485 5.81992 59.235 6.04375C60.5215 6.26758 61.5283 6.60332 62.3674 7.05097C63.2064 7.49862 63.8217 8.05818 64.2691 8.78561C64.7166 9.51305 65.0522 10.2964 65.22 11.2477C65.3879 12.199 65.5557 13.2621 65.5557 14.4372C65.6116 15.6123 65.6116 16.8993 65.6116 18.3542C65.6116 19.809 65.6116 21.096 65.5557 22.2711C65.4997 23.4462 65.3879 24.5094 65.22 25.4606C65.0522 26.4119 64.7166 27.1953 64.2691 27.9227C63.8217 28.5942 63.2064 29.2097 62.3674 29.6574C61.5283 30.105 60.5215 30.4408 59.235 30.6646C57.9485 30.8884 56.4383 31.0003 54.5365 31.0003H45.4191C43.5732 31.0003 42.0071 30.8884 40.7206 30.6646C39.4341 30.4408 38.4272 30.105 37.5882 29.6574C36.7492 29.2097 36.1339 28.6502 35.6864 27.9227C35.239 27.2513 34.9033 26.4119 34.7355 25.4606C34.5118 24.5094 34.3999 23.4462 34.3999 22.2711C34.344 21.096 34.344 19.809 34.344 18.3542C34.344 16.8993 34.344 15.6123 34.3999 14.4372C34.4559 13.2621 34.5677 12.199 34.7355 11.2477C34.9593 10.2964 35.239 9.51305 35.6864 8.78561C36.1339 8.05818 36.7492 7.49862 37.5882 7.05097C38.4272 6.60332 39.4341 6.26758 40.7206 6.04375C42.0071 5.81992 43.5173 5.70801 45.4191 5.70801H54.5365ZM54.5365 28.4263C55.8789 28.4263 56.9976 28.3704 57.8926 28.3144C58.7875 28.2585 59.5706 28.0906 60.1859 27.8108C60.8012 27.587 61.2487 27.1953 61.5843 26.7476C61.9199 26.3 62.1436 25.6845 62.3114 24.957C62.4792 24.2296 62.5352 23.2783 62.5911 22.2152C62.647 21.152 62.647 19.809 62.647 18.2982C62.647 16.7874 62.647 15.5004 62.5911 14.3813C62.5911 13.3181 62.4792 12.3668 62.3114 11.6394C62.1436 10.912 61.9199 10.2964 61.5843 9.84879C61.2487 9.40114 60.8012 9.0654 60.1859 8.78561C59.5706 8.56179 58.8435 8.39392 57.8926 8.28201C56.9976 8.22605 55.823 8.1701 54.4805 8.1701H45.3632C44.0207 8.1701 42.902 8.22605 41.9511 8.28201C41.0562 8.33797 40.2731 8.50583 39.6578 8.78561C39.0425 9.00944 38.595 9.40114 38.2594 9.84879C37.9238 10.2964 37.7001 10.912 37.5323 11.6394C37.3645 12.3668 37.3085 13.3181 37.2526 14.3813C37.2526 15.4444 37.1967 16.7874 37.1967 18.2982C37.1967 19.809 37.1967 21.096 37.2526 22.2152C37.3085 23.3343 37.3645 24.2296 37.5323 24.957C37.7001 25.6845 37.9238 26.3 38.2594 26.7476C38.595 27.1953 39.0425 27.531 39.6578 27.8108C40.2731 28.0346 41.0002 28.2025 41.9511 28.3144C42.8461 28.3704 44.0207 28.4263 45.3632 28.4263H54.5365Z" fill="#004068"/>
<path d="M98.3895 30.4406H95.369V25.9081C95.369 25.1807 95.369 24.5651 95.3131 24.0056C95.3131 23.502 95.2012 22.9984 95.0334 22.6626C94.8656 22.3269 94.6418 21.9911 94.3062 21.7673C93.9706 21.5435 93.5231 21.3756 92.9079 21.2078C92.2926 21.0958 91.5654 20.9839 90.6145 20.928C89.6636 20.872 88.5449 20.872 87.2025 20.872H73.6103V30.4406H70.5898V6.21143H87.7059C89.5518 6.21143 91.1179 6.26738 92.4044 6.43525C93.6909 6.60312 94.6978 6.77099 95.5368 7.05077C96.3758 7.33056 96.9911 7.66629 97.4386 8.00203C97.8861 8.39373 98.2217 8.84138 98.3895 9.40094C98.6132 9.90455 98.7251 10.5201 98.7251 11.1915C98.7251 11.863 98.781 12.5905 98.781 13.3738C98.781 14.3811 98.7251 15.2764 98.5573 16.0038C98.3895 16.7312 98.1657 17.4027 97.8301 17.9623C97.4945 18.5219 97.047 18.9135 96.4877 19.2493C95.9283 19.585 95.2571 19.8089 94.4181 19.9208C95.2571 20.0327 95.9283 20.2565 96.4318 20.5922C96.9352 20.928 97.3267 21.3197 97.6064 21.8233C97.8861 22.3269 98.0539 22.9424 98.1657 23.6139C98.2776 24.2854 98.2776 25.0688 98.2776 25.9641V30.4406H98.3895ZM73.6663 18.354H87.7618C89.1043 18.354 90.223 18.354 91.1739 18.298C92.0688 18.2421 92.8519 18.1861 93.4672 18.0182C94.0825 17.9063 94.53 17.7385 94.8656 17.4587C95.2012 17.2348 95.4249 16.8991 95.5927 16.5634C95.7605 16.1717 95.8165 15.724 95.8724 15.2204C95.8724 14.7168 95.9283 14.0453 95.9283 13.3179C95.9283 12.6464 95.9283 12.0309 95.8724 11.5273C95.8724 11.0237 95.7605 10.632 95.5927 10.2962C95.4249 9.9605 95.2012 9.68072 94.8656 9.51285C94.53 9.28903 94.0825 9.17711 93.4672 9.0652C92.8519 8.95329 92.1248 8.89734 91.1739 8.84138C90.2789 8.78542 89.1043 8.78542 87.7618 8.78542H73.6663V18.354Z" fill="#004068"/>
<path d="M168.923 8.22585V30.4406H165.903V6.21143H170.769L184.865 27.4189L198.96 6.21143H203.939V30.4406H200.918V8.5616L186.543 30.4406H183.466L168.923 8.22585Z" fill="#004068"/>
<path d="M209.979 6.21143H213V30.4406H209.979V6.21143Z" fill="#004068"/>
<path d="M158.855 30.4403H153.933L132.062 4.02887L110.192 30.4403H105.549L130.496 0H133.572L158.855 30.4403ZM132.23 12.3664L118.358 30.4403H146.102L132.23 12.3664Z" fill="url(#paint0_linear_222_17)"/>
<defs>
<linearGradient id="paint0_linear_222_17" x1="105.565" y1="15.2261" x2="158.877" y2="15.2261" gradientUnits="userSpaceOnUse">
<stop stop-color="#8CB6D8"/>
<stop offset="0.0944294" stop-color="#5F9CC2"/>
<stop offset="0.1784" stop-color="#3E88B2"/>
<stop offset="0.2241" stop-color="#3181AC"/>
<stop offset="0.5135" stop-color="#BAD6EF"/>
<stop offset="0.8965" stop-color="#00547E"/>
</linearGradient>
</defs>
</svg>
